<?xml version="1.0" encoding="UTF-8" standalone="no"?>
<!-- Uploaded to: SVG Repo, www.svgrepo.com, Generator: SVG Repo Mixer Tools -->

<svg
   height="400"
   width="400"
   version="1.1"
   id="_x32_"
   viewBox="0 0 256 256"
   xml:space="preserve"
   sodipodi:docname="1024.svg"
   inkscape:version="1.2.2 (b0a8486541, 2022-12-01)"
   xmlns:inkscape="http://www.inkscape.org/namespaces/inkscape"
   xmlns:sodipodi="http://sodipodi.sourceforge.net/DTD/sodipodi-0.dtd"
   xmlns="http://www.w3.org/2000/svg"
   xmlns:svg="http://www.w3.org/2000/svg"><defs
   id="defs3115" /><sodipodi:namedview
   id="namedview3113"
   pagecolor="#505050"
   bordercolor="#eeeeee"
   borderopacity="1"
   inkscape:showpageshadow="0"
   inkscape:pageopacity="0"
   inkscape:pagecheckerboard="0"
   inkscape:deskcolor="#505050"
   showgrid="false"
   inkscape:zoom="1.01"
   inkscape:cx="400.49505"
   inkscape:cy="400"
   inkscape:window-width="1920"
   inkscape:window-height="1011"
   inkscape:window-x="0"
   inkscape:window-y="0"
   inkscape:window-maximized="1"
   inkscape:current-layer="_x32_" />
<style
   type="text/css"
   id="style3106">
	.st0{fill:#000000;}
</style>
<g
   id="g3110"
   transform="matrix(0.36688443,0,0,0.36688443,34.077585,34.077585)">
	<path
   class="st0"
   d="M 428.215,172.215 C 428.223,124.693 408.923,81.567 377.77,50.438 346.649,19.293 303.515,-0.007 256,0 208.486,-0.007 165.352,19.293 134.231,50.446 103.078,81.567 83.777,124.693 83.785,172.215 c -0.008,31.786 8.673,61.634 23.754,87.181 h -0.008 c 0.016,0.032 0.048,0.064 0.064,0.096 0.04,0.064 0.065,0.128 0.104,0.192 l 0.016,-0.007 c 10.98,19.436 26.7,34.724 38.945,48.835 6.167,7.056 11.452,13.751 15,20.014 3.572,6.295 5.382,11.908 5.502,17.53 v 95.421 c 0.008,29.44 23.858,53.296 53.305,53.304 h 7.64 C 233.312,504.96 243.787,512 256,512 c 12.213,0 22.688,-7.04 27.894,-17.218 h 7.64 c 29.447,-0.008 53.296,-23.865 53.304,-53.304 v -95.414 -0.008 c 0.12,-5.622 1.93,-11.236 5.502,-17.53 5.302,-9.419 14.592,-19.709 24.762,-30.914 10.074,-11.179 20.982,-23.352 29.191,-37.936 l 0.008,0.007 c 0.032,-0.048 0.056,-0.111 0.088,-0.16 0.024,-0.048 0.056,-0.08 0.08,-0.128 h -0.008 c 15.081,-25.546 23.762,-55.394 23.754,-87.18 z M 311.828,461.771 c -5.23,5.214 -12.325,8.401 -20.294,8.409 h -71.068 c -7.969,-0.008 -15.064,-3.195 -20.294,-8.409 -5.213,-5.23 -8.401,-12.333 -8.409,-20.294 v -5.326 l 120.128,25.54 c -0.023,0.024 -0.039,0.056 -0.063,0.08 z m 8.409,-20.294 c 0,1.754 -0.216,3.452 -0.513,5.11 l -127.96,-27.205 v -33.524 l 128.473,27.316 z m 0,-45.08 L 191.764,369.08 V 358.1 h 128.473 z m 62.906,-149.255 -0.104,0.169 -0.064,0.112 c -8.505,15.408 -22.92,29.848 -36.159,44.904 -6.607,7.576 -12.918,15.361 -17.867,24.034 -3.003,5.286 -5.39,11.036 -6.935,17.13 H 189.986 c -1.546,-6.102 -3.932,-11.844 -6.944,-17.13 -7.432,-12.982 -17.867,-24.081 -27.893,-35.246 -10.059,-11.1 -19.733,-22.159 -26.124,-33.692 l -0.08,-0.128 -0.089,-0.152 C 115.851,225.184 108.394,199.629 108.386,172.215 108.394,131.412 124.892,94.589 151.624,67.841 178.374,41.1 215.197,24.61 256,24.602 296.804,24.61 333.627,41.1 360.375,67.84 c 26.732,26.748 43.23,63.571 43.238,104.374 -0.008,27.414 -7.464,52.969 -20.47,74.928 z"
   id="path3108" />
</g>
</svg>
