<?xml version="1.0" encoding="UTF-8" standalone="no"?>
<!-- Created with Inkscape (http://www.inkscape.org/) -->

<svg
   width="400"
   height="400"
   viewBox="0 0 105.83333 105.83333"
   version="1.1"
   id="svg882"
   inkscape:version="1.2.2 (b0a8486541, 2022-12-01)"
   sodipodi:docname="2.svg"
   xmlns:inkscape="http://www.inkscape.org/namespaces/inkscape"
   xmlns:sodipodi="http://sodipodi.sourceforge.net/DTD/sodipodi-0.dtd"
   xmlns="http://www.w3.org/2000/svg"
   xmlns:svg="http://www.w3.org/2000/svg">
  <sodipodi:namedview
     id="namedview884"
     pagecolor="#505050"
     bordercolor="#eeeeee"
     borderopacity="1"
     inkscape:showpageshadow="0"
     inkscape:pageopacity="0"
     inkscape:pagecheckerboard="0"
     inkscape:deskcolor="#505050"
     inkscape:document-units="mm"
     showgrid="false"
     inkscape:zoom="1.0179639"
     inkscape:cx="388.52064"
     inkscape:cy="203.34709"
     inkscape:window-width="1920"
     inkscape:window-height="1011"
     inkscape:window-x="0"
     inkscape:window-y="0"
     inkscape:window-maximized="1"
     inkscape:current-layer="layer1" />
  <defs
     id="defs879" />
  <g
     inkscape:label="Calque 1"
     inkscape:groupmode="layer"
     id="layer1">
    <path
       d="m 59.704237,65.250314 c -0.143378,0.0592 -0.287728,0.116159 -0.43207,0.174092 -0.14474,0.05681 -0.288595,0.117034 -0.436733,0.164278 l -0.443342,0.147456 -0.111203,0.03655 c -0.03699,0.01212 -0.07415,0.02442 -0.111876,0.03407 l -0.225706,0.06168 c -0.150377,0.04159 -0.301523,0.08114 -0.452679,0.121308 -0.152119,0.0354 -0.30531,0.06716 -0.4585,0.09915 -0.30532,0.07079 -0.616267,0.110902 -0.926346,0.158925 -0.07743,0.01327 -0.155624,0.02017 -0.23368,0.0284 l -0.234351,0.02301 c -0.156403,0.01442 -0.312505,0.03309 -0.469783,0.03761 -0.156987,0.008 -0.31416,0.0138 -0.471341,0.02053 -0.157172,0.0027 -0.314646,-5.84e-4 -0.472013,-6.81e-4 -0.07875,-8.85e-4 -0.157473,-8.76e-4 -0.236104,-0.0035 l -0.235918,-0.0138 -0.235811,-0.01389 -0.117999,-0.0071 c -0.0392,-0.0035 -0.07831,-0.008 -0.117521,-0.01195 -0.627929,-0.05619 -1.250319,-0.170304 -1.860559,-0.326308 l -0.228529,-0.06008 c -0.03823,-0.0093 -0.07583,-0.02106 -0.113433,-0.03274 l -0.112955,-0.0346 -0.2256,-0.06999 c -0.07539,-0.02248 -0.149306,-0.04955 -0.223379,-0.07628 l -0.222105,-0.07973 -0.111009,-0.03991 -0.109256,-0.04451 -0.218123,-0.08972 -0.108964,-0.04486 -0.10731,-0.04867 c -0.573499,-0.256907 -1.124249,-0.561926 -1.641754,-0.912728 -0.257102,-0.178179 -0.507886,-0.36442 -0.745839,-0.565819 -0.237856,-0.201018 -0.465509,-0.415159 -0.668563,-0.649706 0.495348,0.371119 1.024612,0.682173 1.564283,0.965228 0.542202,0.278773 1.098491,0.523725 1.667522,0.729602 l 0.106142,0.03982 0.107601,0.03584 0.215017,0.07185 0.10731,0.03619 0.108477,0.03265 0.216858,0.06504 c 0.143572,0.04637 0.29132,0.07884 0.436538,0.119078 l 0.109256,0.02902 c 0.03637,0.0098 0.07274,0.01973 0.109646,0.02725 l 0.220751,0.04902 0.220459,0.04955 c 0.07371,0.01522 0.14804,0.02787 0.222008,0.04203 l 0.222007,0.04141 c 0.03708,0.0071 0.07398,0.01442 0.111106,0.02018 l 0.111884,0.01575 c 0.149111,0.02079 0.297727,0.0453 0.446936,0.06548 l 0.449271,0.04681 c 0.03752,0.0035 0.07486,0.0088 0.112371,0.01203 l 0.112654,0.0071 0.225512,0.01496 0.225512,0.01504 c 0.07522,0.0035 0.15066,0.0035 0.225998,0.0062 0.150757,0.0035 0.301523,0.01027 0.45228,0.01115 0.150864,-0.0027 0.301815,-0.0062 0.452873,-0.0071 0.151147,0.0018 0.301815,-0.0108 0.452767,-0.01885 l 0.226485,-0.01265 c 0.07566,-0.0035 0.151341,-0.0062 0.226486,-0.01513 l 0.452377,-0.0438 c 0.151545,-0.01044 0.301328,-0.03442 0.4519,-0.0546 0.150173,-0.02177 0.301425,-0.03911 0.45189,-0.06115 0.149793,-0.02663 0.299488,-0.0538 0.449856,-0.07902 l 0.225706,-0.0384 c 0.0377,-0.0053 0.07495,-0.01416 0.112177,-0.02248 l 0.111875,-0.02389 0.44898,-0.09458 c 0.151058,-0.02734 0.298125,-0.06938 0.447431,-0.105177 0.149111,-0.03628 0.298116,-0.07353 0.4482,-0.108478 l 0.05628,-0.01345 0.05539,-0.01575 0.111,-0.03132 0.222795,-0.06168 c 0.149394,-0.03938 0.298214,-0.08114 0.448979,-0.118689 -0.277321,0.136281 -0.5562,0.273437 -0.840512,0.398144 z m 9.71397,-14.664805 c -3.40133,-3.893554 -4.296369,-8.010974 -7.563357,-11.94925 -3.266996,-3.938364 -7.608176,-4.564939 -10.248588,-5.191408 -2.640519,-0.626575 -2.998515,0.715993 -2.998515,0.715993 0,0 -1.163618,2.371948 -2.180169,3.535566 -1.016542,1.163609 0.211026,1.969134 0.211026,1.969134 0,0 -0.402806,0.447616 -0.671376,0.895136 -0.268473,0.447528 -0.537043,2.729945 1.745471,1.988875 1.589564,-0.516054 2.267453,-0.192656 2.532528,0.05124 0.161163,0.148332 0.354881,0.257004 0.568341,0.306381 2.963429,0.685472 6.440665,-0.357607 6.440665,-0.357607 3.40171,3.222761 3.043714,6.714092 3.043714,6.714092 -0.447617,5.102664 0,9.936766 0,9.936766 -5.460854,-5.192196 -9.31019,-3.67029 -10.65305,-2.864571 -1.342761,0.805613 -1.342761,0.44752 -1.342761,0.44752 -4.364116,-4.136763 -8.358936,-4.279937 -11.234098,-3.418727 -3.191596,0.956087 -5.467393,3.781776 -5.76889,7.099803 -0.74914,8.244264 9.494706,9.106836 13.290808,9.145134 0.04141,0.02876 0.08282,0.05743 0.124228,0.08574 6.086456,4.162133 15.216237,2.685232 16.558804,2.237712 1.342665,-0.447625 3.311798,-0.626575 5.370464,-0.716098 2.058656,-0.08952 7.026314,-1.87961 7.787116,-4.609652 0.760909,-2.729945 -1.61104,-12.128199 -5.012361,-16.021762"
       style="fill:#fafaf9;fill-opacity:1;fill-rule:nonzero;stroke:none;stroke-width:0.000972032"
       id="path746" />
  </g>
</svg>
