<?xml version="1.0" encoding="UTF-8" standalone="no"?>
<!-- Uploaded to: SVG Repo, www.svgrepo.com, Generator: SVG Repo Mixer Tools -->

<svg
   fill="#000000"
   height="400"
   width="400"
   version="1.1"
   id="Layer_1"
   viewBox="-330 131 149.5 149.5"
   xml:space="preserve"
   sodipodi:docname="2048.svg"
   inkscape:version="1.2.2 (b0a8486541, 2022-12-01)"
   xmlns:inkscape="http://www.inkscape.org/namespaces/inkscape"
   xmlns:sodipodi="http://sodipodi.sourceforge.net/DTD/sodipodi-0.dtd"
   xmlns="http://www.w3.org/2000/svg"
   xmlns:svg="http://www.w3.org/2000/svg"
   xmlns:rdf="http://www.w3.org/1999/02/22-rdf-syntax-ns#"
   xmlns:cc="http://creativecommons.org/ns#"
   xmlns:dc="http://purl.org/dc/elements/1.1/"><defs
   id="defs3279" /><sodipodi:namedview
   id="namedview3277"
   pagecolor="#505050"
   bordercolor="#eeeeee"
   borderopacity="1"
   inkscape:showpageshadow="0"
   inkscape:pageopacity="0"
   inkscape:pagecheckerboard="0"
   inkscape:deskcolor="#505050"
   showgrid="false"
   inkscape:zoom="1.01"
   inkscape:cx="400.49505"
   inkscape:cy="400"
   inkscape:window-width="1920"
   inkscape:window-height="1011"
   inkscape:window-x="0"
   inkscape:window-y="0"
   inkscape:window-maximized="1"
   inkscape:current-layer="Layer_1" />
<title
   id="title3266">Page 1</title>
<desc
   id="desc3268">Created with Sketch.</desc>
<g
   id="g3274"
   transform="matrix(0.38645377,0,0,0.38645377,-185.2439,90.702714)">
	<path
   d="m -60.4,366.1 h -120.7 -120.7 c -2.9,0 -5.2,0.2 -5.2,10.5 0,10.3 2.4,10.3 5.2,10.3 h 15.8 v 18.3 c 0,2.9 2.4,5.2 5.2,5.2 h 31.3 c 2.9,0 5.2,-2.3 5.2,-5.2 v -18.3 h 63.1 63.2 v 18.3 c 0,2.9 2.3,5.2 5.2,5.2 h 31.3 c 2.9,0 5.3,-2.3 5.3,-5.2 v -18.3 h 15.7 c 2.9,0 5.2,0.2 5.2,-10.3 0.2,-10.5 -2.2,-10.5 -5.1,-10.5 z"
   id="path3270" />
	<path
   d="m -301.9,357.2 h 241.2 c 2.9,0 5.3,-2.4 5.3,-5.2 v -21 c 0,-0.1 0,-0.1 0,-0.1 -0.2,-44.5 -2.4,-61.7 -31.7,-68.3 -3.2,-77.6 -20.5,-77.6 -94.1,-77.6 -73.5,0 -90.5,0 -93.6,77.5 -30,6.5 -32.1,23.7 -32.2,68.4 0,0 0,0.1 0,0.1 v 21 c -0.2,2.9 2.2,5.2 5.1,5.2 z m 120.5,-57 c 45.6,0 55.4,0.1 54.8,10 H -236 c -0.4,-10 9.1,-10 54.6,-10 z m -52.5,20.7 c -0.2,-0.7 -0.3,-1.4 -0.5,-2 h 106 c -0.2,0.6 -0.3,1.2 -0.5,1.8 -0.5,1.9 -1,3.7 -1.4,5.3 h -102.3 c -0.4,-1.6 -0.8,-3.3 -1.3,-5.1 z m 89.3,20.6 h -36.7 -36.7 c -7.4,0 -9.6,0 -12,-6.9 h 97.3 c -2.5,6.6 -4.6,6.9 -11.9,6.9 z M -97,310.2 c 8.7,0 15.7,7 15.7,15.7 0,8.7 -7,15.7 -15.7,15.7 -8.7,0 -15.7,-7 -15.7,-15.7 -0.1,-8.7 7,-15.7 15.7,-15.7 z m -147.4,-96.8 c 6.8,-7.5 30.4,-7.5 63,-7.5 32.8,0 56.5,0 63.4,7.6 6,6.5 8.5,24.6 9.6,46.2 -17.7,-1.3 -41.3,-1.3 -72.7,-1.3 -31.4,0 -55,0 -72.7,1.3 1,-21.6 3.5,-39.8 9.4,-46.3 z m -20.5,96.8 c 8.7,0 15.7,7 15.7,15.7 0,8.7 -7.1,15.7 -15.7,15.7 -8.7,0 -15.7,-7 -15.7,-15.7 0,-8.7 7,-15.7 15.7,-15.7 z"
   id="path3272" />
</g>
<metadata
   id="metadata3398"><rdf:RDF><cc:Work
       rdf:about=""><dc:title>Page 1</dc:title></cc:Work></rdf:RDF></metadata></svg>
