<?xml version="1.0" encoding="UTF-8" standalone="no"?>
<svg
   viewBox="0 0 400 400"
   version="1.1"
   id="svg2493"
   sodipodi:docname="256.svg"
   inkscape:version="1.2.2 (b0a8486541, 2022-12-01)"
   width="400"
   height="400"
   xmlns:inkscape="http://www.inkscape.org/namespaces/inkscape"
   xmlns:sodipodi="http://sodipodi.sourceforge.net/DTD/sodipodi-0.dtd"
   xmlns="http://www.w3.org/2000/svg"
   xmlns:svg="http://www.w3.org/2000/svg">
  <defs
     id="defs2497" />
  <sodipodi:namedview
     id="namedview2495"
     pagecolor="#505050"
     bordercolor="#eeeeee"
     borderopacity="1"
     inkscape:showpageshadow="0"
     inkscape:pageopacity="0"
     inkscape:pagecheckerboard="0"
     inkscape:deskcolor="#505050"
     showgrid="false"
     inkscape:zoom="0.9081341"
     inkscape:cx="-127.18386"
     inkscape:cy="375.4952"
     inkscape:window-width="1920"
     inkscape:window-height="1011"
     inkscape:window-x="0"
     inkscape:window-y="0"
     inkscape:window-maximized="1"
     inkscape:current-layer="svg2493" />
  <path
     d="m 242.67017,293.349 c 14.09961,-1.24741 28.02714,-6.72732 15.94383,-21.28404 1.65093,-4.54021 0.71082,-6.44741 4.53567,-9.90086 l -2.47518,-4.13366 c 10.96811,-3.1336 6.65509,-11.81929 -0.41462,-16.09489 3.50684,0.68581 6.84489,-0.99455 9.57378,-1.63333 7.45963,-1.74603 9.22964,-10.17013 2.39979,-16.52178 -1.85506,-1.12558 -3.81172,-2.29766 -5.82985,-4.07081 -3.46527,-3.04474 -7.10497,-6.66953 -10.67979,-9.5613 1.45167,-4.882 3.4457,-9.94289 0.41462,-13.33053 28.84285,-5.97053 46.78917,-13.09474 38.10729,-14.93896 -0.74938,-1.28629 -16.24923,-0.53984 -39.16273,-1.19362 0.23122,-0.97084 0.26564,-2.00447 0.0754,-3.05314 -6.27942,-26.82459 -13.85727,-60.17356 -18.13418,-96.342053 -0.64273,-3.542831 -3.67609,-6.027929 -7.13649,-6.106217 l 1.9e-4,0.0015 c -0.49435,-0.01119 -1.00145,0.02192 -1.50769,0.113077 -35.87295,2.14975 -71.70649,4.647327 -106.29216,19.14822 -4.04993,0.729281 -6.71485,4.570156 -5.98058,8.618839 8.79288,32.5766 13.91046,53.27612 17.53125,89.87283 -18.73577,11.12771 -30.70086,24.13313 -30.05394,27.31454 10.17867,-1.03882 22.73092,-3.34232 36.47389,-5.91779 0.13335,15.75796 3.73593,28.47046 10.83019,43.6984 l -15.69294,35.49399 c 29.87071,-2.36108 55.80621,7.76127 76.29725,31.20851 l 15.13179,-15.53216 12.17461,-6.54599 -7.90295,-4.14621 -3.65619,-5.40261 4.1e-4,2.5e-4 c 3.75917,0.51558 8.95379,0.71693 14.22308,0.33923 z"
     fill-rule="evenodd"
     stroke="#000000"
     stroke-width="0.358303"
     id="path2491"
     sodipodi:nodetypes="cccccccccccccccccccccccccccccccc" />
</svg>
