<?xml version="1.0" encoding="UTF-8" standalone="no"?>
<!-- Created with Inkscape (http://www.inkscape.org/) -->

<svg
   width="400"
   height="400"
   viewBox="0 0 105.83333 105.83333"
   version="1.1"
   id="svg1723"
   inkscape:version="1.2.2 (b0a8486541, 2022-12-01)"
   sodipodi:docname="32.svg"
   xmlns:inkscape="http://www.inkscape.org/namespaces/inkscape"
   xmlns:sodipodi="http://sodipodi.sourceforge.net/DTD/sodipodi-0.dtd"
   xmlns="http://www.w3.org/2000/svg"
   xmlns:svg="http://www.w3.org/2000/svg">
  <sodipodi:namedview
     id="namedview1725"
     pagecolor="#505050"
     bordercolor="#eeeeee"
     borderopacity="1"
     inkscape:showpageshadow="0"
     inkscape:pageopacity="0"
     inkscape:pagecheckerboard="0"
     inkscape:deskcolor="#505050"
     inkscape:document-units="mm"
     showgrid="false"
     inkscape:zoom="0.7198092"
     inkscape:cx="398.02214"
     inkscape:cy="561.25984"
     inkscape:window-width="1920"
     inkscape:window-height="1011"
     inkscape:window-x="0"
     inkscape:window-y="0"
     inkscape:window-maximized="1"
     inkscape:current-layer="layer1" />
  <defs
     id="defs1720" />
  <g
     inkscape:label="Calque 1"
     inkscape:groupmode="layer"
     id="layer1">
    <g
       transform="matrix(0.28640955,0,0,0.29596399,169.89377,-195.52429)"
       id="g32">
      <path
         transform="matrix(0.19194,0,0,0.18241,-363.83,787.97)"
         d="m -334,621.36 c 0,77.872 -59.994,141 -134,141 -74.006,0 -134,-63.128 -134,-141 0,-77.872 59.994,-141 134,-141 74.006,0 134,63.128 134,141 z"
         id="path24" />
      <path
         transform="matrix(0.19194,0,0,0.18241,-273.45,788.05)"
         d="m -334,621.36 c 0,77.872 -59.994,141 -134,141 -74.006,0 -134,-63.128 -134,-141 0,-77.872 59.994,-141 134,-141 74.006,0 134,63.128 134,141 z"
         id="path26" />
      <path
         d="m -515.3,806.29 23.254,84.114 h 11.662 c 11.47,-26.87 45.381,-21.434 53.692,0 h 36.703 c 10.172,-25.318 43.964,-23.832 53.692,0 h 11.491 l 23.254,-84.114 h -106.87 z"
         id="path28" />
      <path
         d="m -504.33,810.86 c -0.20144,-3.6667 -2.364,-6.5346 -0.60432,-11 3.6259,-2.5529 7.2518,-2.1188 10.878,-3 0.38906,-3.0525 0.69463,-6.1346 3.0216,-8.5 3.223,-0.48691 6.446,-0.64876 9.6691,0.5 -1.3495,-2.8938 -1.2536,-1.7104 -0.52159,-5.25 0.68646,-4.2071 3.4222,-5.2654 6.0432,-6.5 1.7605,-1.6159 2.4282,-3.3323 9.0648,-4.5 6.3674,2.0076 4.8394,0.7905 6.5648,3.25 1.206,0.0444 1.7457,0.77791 1.813,2 1.3388,-4.4513 4.9397,-5.1593 7.8561,-7 -0.004,-4.3901 -0.0742,-8.7982 2.4173,-12.5 1.6115,-1.4461 3.223,-0.54752 4.8345,-0.5 5.4388,-3.13 10.878,-3.6285 16.317,-4.5 0.74329,-1.2642 1.7091,-1.8839 3.0216,-1.5 2.5886,0.27273 7.4087,-0.17196 10.878,4 7.242,-0.87805 9.7794,3.4339 13.899,6 0.62381,-3.1505 1.5868,-6.0204 3.6259,-8 5.0777,-0.72611 9.676,-0.1301 13.899,1.5 1.8151,2.2138 3.038,4.2014 3.7359,6.7045 4.5573,0.42693 8.5818,3.0581 12.581,5.7955 4.7678,-1.0566 8.4633,0.99165 12.691,1.5 2.4415,2.0787 2.1578,2.8045 1.813,3.5 3.2804,1.405 6.6131,2.7236 9.0648,5.5 1.3457,-0.52877 2.9845,0.45836 3.6594,1.1794 0.5813,4.3836 0.16475,2.0651 -0.0335,5.3206 5.8935,1.6438 6.9883,3.0891 7.2518,4.5 4.7145,0.95192 6.7965,3.4596 9.6691,5.5 0.98129,1.6667 2.646,3.3333 1.2086,5 2.224,0.81225 5.5232,2.681 5.6347,4.0607 1.2512,2.8577 -0.13058,4.6262 -0.19587,6.9393 l -70.101,1.5 z"
         id="path30" />
    </g>
  </g>
</svg>
