<?xml version="1.0" encoding="UTF-8" standalone="no"?>
<svg
   enable-background="new -774.4409 -429.8995 2429.3833 1764.0917"
   version="1.1"
   viewBox="-774.4409 -429.8995 400 400.00001"
   id="svg324"
   sodipodi:docname="4.svg"
   inkscape:version="1.2.2 (b0a8486541, 2022-12-01)"
   width="400"
   height="400"
   xmlns:inkscape="http://www.inkscape.org/namespaces/inkscape"
   xmlns:sodipodi="http://sodipodi.sourceforge.net/DTD/sodipodi-0.dtd"
   xmlns="http://www.w3.org/2000/svg"
   xmlns:svg="http://www.w3.org/2000/svg">
  <defs
     id="defs328" />
  <sodipodi:namedview
     id="namedview326"
     pagecolor="#505050"
     bordercolor="#eeeeee"
     borderopacity="1"
     inkscape:showpageshadow="0"
     inkscape:pageopacity="0"
     inkscape:pagecheckerboard="0"
     inkscape:deskcolor="#505050"
     showgrid="false"
     inkscape:zoom="0.6477467"
     inkscape:cx="727.90799"
     inkscape:cy="654.57686"
     inkscape:window-width="1920"
     inkscape:window-height="1011"
     inkscape:window-x="0"
     inkscape:window-y="0"
     inkscape:window-maximized="1"
     inkscape:current-layer="svg324" />
  <path
     d="m 488.92,326.72 c -0.8387,0.1199 -1.6709,0.2346 -2.5072,0.3525 0.8132,-0.1078 1.6505,-0.2259 2.5072,-0.3525 z"
     fill="none"
     id="path318" />
  <path
     d="m -465.23267,-252.15037 c -2.95574,-17.14751 -15.69802,-24.98558 -38.24284,-23.52228 -7.83761,-6.37522 -24.75762,-8.08133 -50.73562,-5.15461 -0.0969,0.015 -0.18721,0.027 -0.28288,0.0415 l 0.0237,-0.002 c -0.079,0.011 -0.15686,0.0218 -0.2357,0.0332 -0.34736,0.0514 -0.68684,0.0993 -1.01658,0.14295 -15.43207,2.17688 -29.81645,3.53348 -42.61204,3.64434 -7.83841,0.49994 -16.29669,-0.81995 -20.56803,-7.54403 -1.97046,-2.92662 -4.669,-6.6033 -8.08814,-11.02971 -5.40432,-7.35303 -12.39723,-13.22041 -20.97099,-17.63222 -8.58848,-4.41167 -20.47132,-6.37488 -35.66277,-5.88972 -2.94124,-1.94858 -6.61746,-2.94123 -11.02937,-2.94123 -0.97804,1.47815 -0.49266,3.19877 1.47805,5.15462 l -0.002,-1.2e-4 c -2.45596,0 -4.17658,1.23545 -5.16924,3.69866 1.95572,-0.48535 3.43376,-0.24253 4.4118,0.73529 -3.91926,7.84566 -5.14,14.22089 -3.67647,19.11738 0.48509,0.97804 0.24255,2.21327 -0.73551,3.67646 -0.48513,2.94157 -0.86031,5.75767 -1.1029,8.45632 -0.24255,2.69831 -0.60287,5.27182 -1.08824,7.71305 -1.47804,5.88972 -0.74256,10.31636 2.19864,13.2423 v 2.94122 c 1.46331,3.91892 3.91916,3.18381 7.35304,-2.21327 0.4927,-0.48536 0.73526,-0.48536 0.73526,0 2.941,3.93379 5.15439,1.23547 6.61757,-8.08813 0.48535,-1.95595 1.70601,-3.43377 3.67646,-4.41179 2.44088,-0.97028 4.64713,-3.18371 6.61746,-6.61746 0.49268,-1.95584 1.22062,-1.4632 2.21327,1.46318 0.4853,7.86065 3.90465,15.94096 10.27964,24.27294 1.94857,1.47793 2.94124,3.44849 2.94124,5.88971 -0.97079,6.375 -0.72798,10.78691 0.7352,13.22848 1.46319,3.44885 1.46319,6.63979 0,9.56641 -5.39709,7.84567 -10.78691,13.48521 -16.1689,16.90458 -3.9339,3.44851 -5.88973,6.38974 -5.88973,8.83096 -2.9486,10.7869 -6.86775,19.84502 -11.76518,27.19839 -3.91926,7.35303 -3.91926,12.51467 0,15.44128 1.95595,5.39708 4.41181,9.58126 7.35304,12.50776 2.93364,-2.92661 4.89706,-5.38234 5.88973,-7.35303 1.46317,-5.38982 0.22799,-8.57376 -3.67647,-9.5664 -2.45618,0 -1.72062,-1.95584 2.19841,-5.87511 0.49267,0 0.75015,-0.2499 0.75015,-0.74987 -1.96366,-3.90419 -1.23547,-8.5589 2.19841,-13.95609 1.46331,-4.4118 5.14,-8.33096 11.02973,-11.77898 2.44087,-2.44123 5.147,-5.3827 8.08813,-8.81634 1.46331,-2.93387 4.89718,-5.63263 10.29426,-8.08848 0.97812,-1.4632 2.45597,-1.4632 4.4118,0 1.95641,2.94123 4.04441,6.00002 6.25019,9.19143 2.20601,3.19095 3.80149,6.2647 4.77964,9.19142 0.48534,5.39708 2.94112,10.29427 7.35303,14.7056 0,1.4632 0.35299,2.81621 1.10284,4.03682 0.72796,1.23522 1.10315,2.58824 1.10315,4.05167 0.48505,0.97778 0.84542,2.08062 1.08823,3.30124 0.24259,1.23546 0.86033,2.33842 1.85292,3.31644 1.46331,2.94124 0.96328,5.88996 -1.47804,8.81634 -0.97802,0.98534 -1.46319,1.96321 -1.46319,2.94124 -2.45597,3.93366 -3.92641,6.13218 -4.41191,6.61745 -2.94113,3.67634 -0.24243,5.51475 8.08858,5.51475 8.33104,0 11.01486,-2.5734 8.08814,-7.72813 -1.97057,-2.44121 -0.9927,-4.41168 2.94124,-5.87509 1.47068,-1.95584 1.71338,-3.91905 0.73525,-5.88972 -4.9118,-5.86785 -8.08826,-14.19903 -9.55144,-25.00057 0,-4.40454 -1.23547,-9.79436 -3.67647,-16.1689 -1.47803,-1.46329 -2.21325,-3.67668 -2.21325,-6.61791 v -9.56654 c 0,-0.97777 0.73529,-1.2206 2.21325,-0.73523 10.77229,2.9486 20.09601,4.41178 27.93408,4.41178 12.73687,0.99258 27.20069,-2.19841 43.38456,-9.55144 0.49267,0 1.2206,0.24987 2.21327,0.73523 0.48534,2.94123 2.92661,6.61758 7.35303,11.02937 0,5.40445 0.73524,9.8091 2.19841,13.2423 1.95619,2.4563 2.19875,6.86775 0.73553,13.22846 -1.95595,13.24229 -5.87509,21.83102 -11.76518,25.73509 -1.96318,1.96332 -2.94122,3.69119 -2.94122,5.15461 -6.37512,4.40454 -9.9194,7.22075 -10.65474,8.44136 -0.74984,1.23523 -0.13233,2.33818 1.83841,3.31621 6.37511,1.97069 11.27217,1.97069 14.70559,0 1.94858,-0.97836 2.94125,-4.16933 2.94125,-9.5664 0,-2.93399 1.95582,-4.4118 5.87508,-4.4118 2.94872,0 4.42643,-1.22061 4.42643,-3.6768 0,-9.30899 2.6915,-18.13995 8.08848,-26.47077 3.91177,-7.83795 4.15436,-14.46266 0.73524,-19.85998 -1.97047,-2.44145 -1.97047,-4.41191 0,-5.87511 4.40454,5.88973 9.79436,9.809 16.1689,11.76517 0,1.48518 0.97049,2.94838 2.94123,4.4118 2.92651,3.93377 4.7649,7.7279 5.51464,11.40435 0.73554,3.67669 1.35301,7.23559 1.8384,10.65475 0.97796,14.21397 3.43399,20.83859 7.35303,19.85998 6.86774,6.86797 10.78678,7.59583 11.76517,2.19875 0.48516,-3.90465 0.24252,-8.31644 -0.73549,-13.22847 -2.45608,1.46319 -4.41192,2.19876 -5.8751,2.19876 -0.99267,-0.97806 -0.87515,-1.82379 0.36033,-2.57363 1.22062,-0.72792 1.58822,-1.8384 1.10284,-3.3016 -5.88973,0 -8.57352,-8.8237 -8.08813,-26.48572 v -4.4118 c 0,-2.44122 -1.72075,-5.1469 -5.15462,-8.08814 -4.91205,-3.41926 -5.88258,-9.5519 -2.92662,-18.38286 8.33118,-17.14637 8.81645,-32.10178 1.46343,-44.85247 8.33106,0 12.49278,6.61793 12.49278,19.84616 0,17.16248 4.16208,28.44181 12.50777,33.82414 4.41179,3.93377 9.30898,5.88973 14.70559,5.88973 5.38983,0 8.57352,-2.19116 9.55144,-6.61747 -7.35303,-1.46376 -13.23539,-13.71316 -17.6322,-36.76572 z"
     id="path320"
     style="fill:#fafaf9;stroke-width:0.11513" />
  <path
     d="m 489.5,326.64 -0.0585,0.005 c -0.1768,0.0266 -0.3478,0.0508 -0.5228,0.0767 0.1944,-0.0279 0.3866,-0.0539 0.5813,-0.0818 z"
     id="path322" />
</svg>
