<?xml version="1.0" encoding="UTF-8" standalone="no"?>
<!-- Uploaded to: SVG Repo, www.svgrepo.com, Generator: SVG Repo Mixer Tools -->

<svg
   version="1.1"
   id="_x32_"
   width="400"
   height="400"
   viewBox="0 0 256 256"
   xml:space="preserve"
   sodipodi:docname="4096.svg"
   inkscape:version="1.2.2 (b0a8486541, 2022-12-01)"
   xmlns:inkscape="http://www.inkscape.org/namespaces/inkscape"
   xmlns:sodipodi="http://sodipodi.sourceforge.net/DTD/sodipodi-0.dtd"
   xmlns="http://www.w3.org/2000/svg"
   xmlns:svg="http://www.w3.org/2000/svg"><defs
   id="defs3451" /><sodipodi:namedview
   id="namedview3449"
   pagecolor="#505050"
   bordercolor="#eeeeee"
   borderopacity="1"
   inkscape:showpageshadow="0"
   inkscape:pageopacity="0"
   inkscape:pagecheckerboard="0"
   inkscape:deskcolor="#505050"
   showgrid="false"
   inkscape:zoom="1.01"
   inkscape:cx="400.49505"
   inkscape:cy="400"
   inkscape:window-width="1920"
   inkscape:window-height="1011"
   inkscape:window-x="0"
   inkscape:window-y="0"
   inkscape:window-maximized="1"
   inkscape:current-layer="_x32_" />
<style
   type="text/css"
   id="style3434">
<![CDATA[
	.st0{fill:#000000;}
]]>
</style>
<g
   id="g3446"
   transform="matrix(0.36864165,0,0,0.36864165,33.627995,33.627946)">
	<path
   class="st0"
   d="m 233.449,111.887 -142.5,26.344 c -4.922,0.953 -28.547,5.359 -42.828,30.344 -2.5,4.359 -29.453,58 -29.453,58 l 33.016,20.516 33.906,-41.047 41.531,29.047 z"
   id="path3436" />
	<path
   class="st0"
   d="m 400.839,279.262 -26.344,142.5 c -0.953,4.922 -5.375,28.563 -30.344,42.844 -4.359,2.484 -58.016,29.438 -58.016,29.438 l -20.516,-33.016 41.047,-33.906 -29.047,-41.532 z"
   id="path3438" />
	<path
   class="st0"
   d="m 155.777,259.622 -7.531,8.531 c -9.188,11.344 -8.328,27.813 2.016,38.141 l 56.172,56.172 c 10.328,10.344 26.781,11.203 38.141,2.016 l 8.531,-7.531 z"
   id="path3440" />
	<path
   class="st0"
   d="M 495.512,17.215 C 443.168,-35.129 328.637,48.449 275.105,110.012 L 164.839,235.325 277.402,347.888 402.715,237.607 C 464.277,184.075 547.855,69.543 495.512,17.215 Z m -230.22,230.203 c -12.203,-12.188 -12.203,-31.953 0,-44.156 12.188,-12.203 31.969,-12.203 44.156,0 12.203,12.203 12.203,31.969 0.016,44.156 -12.203,12.204 -31.984,12.204 -44.172,0 z m 84.313,-84.312 c -17.375,-17.375 -17.375,-45.531 0.016,-62.891 17.359,-17.391 45.531,-17.391 62.891,-0.016 17.375,17.375 17.375,45.531 0,62.906 -17.36,17.376 -45.532,17.376 -62.907,0.001 z"
   id="path3442" />
	<path
   class="st0"
   d="m 164.808,464.356 32.594,-82.157 -18.891,-18.875 -17.266,32.734 -8.938,-17.859 -32.563,12.047 16.953,-33.031 -17.844,-8.922 28.734,-15.891 -18.469,-18.484 c -17.406,9.391 -79.234,32.484 -79.234,32.484 -0.484,0.188 -0.797,0.625 -0.828,1.125 -0.047,0.516 0.203,0.984 0.625,1.25 l 31.516,19.391 c 0.594,0.375 0.813,1.125 0.5,1.75 l -45.016,44.047 c -0.25,0.5 1.172,2.047 1.688,1.859 l 30.859,4.828 -69.234,69.234 21.422,21.391 82.25,-82.25 0.016,35.625 c 0,0.547 0.313,1.031 0.828,1.25 0.5,0.203 1.063,0.094 1.453,-0.281 l 31.438,-31.438 c 0.266,-0.281 0.641,-0.422 1.047,-0.391 0.391,0.016 0.734,0.203 0.969,0.516 l 23.078,30.359 c 0.281,0.391 0.75,0.578 1.234,0.516 0.501,-0.077 0.892,-0.389 1.079,-0.827 z"
   id="path3444" />
</g>
</svg>
