<?xml version="1.0" encoding="UTF-8" standalone="no"?>
<!-- Created with Inkscape (http://www.inkscape.org/) -->

<svg
   width="400"
   height="400"
   viewBox="0 0 105.83333 105.83333"
   version="1.1"
   id="svg2838"
   inkscape:version="1.2.2 (b0a8486541, 2022-12-01)"
   sodipodi:docname="512.svg"
   xmlns:inkscape="http://www.inkscape.org/namespaces/inkscape"
   xmlns:sodipodi="http://sodipodi.sourceforge.net/DTD/sodipodi-0.dtd"
   xmlns="http://www.w3.org/2000/svg"
   xmlns:svg="http://www.w3.org/2000/svg">
  <sodipodi:namedview
     id="namedview2840"
     pagecolor="#505050"
     bordercolor="#eeeeee"
     borderopacity="1"
     inkscape:showpageshadow="0"
     inkscape:pageopacity="0"
     inkscape:pagecheckerboard="0"
     inkscape:deskcolor="#505050"
     inkscape:document-units="mm"
     showgrid="false"
     inkscape:zoom="1.4396184"
     inkscape:cx="297.64832"
     inkscape:cy="235.47907"
     inkscape:window-width="1920"
     inkscape:window-height="1011"
     inkscape:window-x="0"
     inkscape:window-y="0"
     inkscape:window-maximized="1"
     inkscape:current-layer="layer1" />
  <defs
     id="defs2835" />
  <g
     inkscape:label="Calque 1"
     inkscape:groupmode="layer"
     id="layer1">
    <path
       d="M 60.452617,46.224118 61.865622,33.820625 H 67.83174 L 68.459752,47.480294 60.45265,46.22423"
       stroke="#000000"
       stroke-width="0.109902px"
       id="path2" />
    <path
       d="m 47.343555,45.988927 1.413006,-12.403491 h 5.966117 L 55.35069,47.245104 47.343588,45.98904"
       stroke="#000000"
       stroke-width="0.109902px"
       id="path4" />
    <path
       id="rect6"
       style="stroke:none;stroke-width:1.06352"
       d="m 32.217952,44.827319 c -0.40571,0 -0.732051,0.32634 -0.732051,0.732051 v 12.508612 c 0,0.405709 0.326341,0.73205 0.732051,0.73205 h 49.090256 c 0.405711,0 0.7326,-0.326341 0.7326,-0.73205 V 45.55937 c 0,-0.405711 -0.326889,-0.732051 -0.7326,-0.732051 z m 18.955823,2.170321 h 3.014488 c 0.397605,0 0.717761,0.361605 0.717761,0.810641 v 2.18626 c 0,0.449036 -0.320156,0.810641 -0.717761,0.810641 h -3.014488 c -0.397607,0 -0.717761,-0.361605 -0.717761,-0.810641 v -2.18626 c 0,-0.449036 0.320154,-0.810641 0.717761,-0.810641 z m 18.338086,0.126405 h 3.014488 c 0.397607,0 0.717761,0.376719 0.717761,0.844167 v 2.275292 c 0,0.467447 -0.320154,0.843616 -0.717761,0.843616 h -3.014488 c -0.397605,0 -0.717761,-0.376169 -0.717761,-0.843616 v -2.275292 c 0,-0.467448 0.320156,-0.844167 0.717761,-0.844167 z m -9.042913,0.03078 h 3.014489 c 0.397605,0 0.717761,0.377675 0.717761,0.846364 v 2.281337 c 0,0.468691 -0.320156,0.846365 -0.717761,0.846365 h -3.014489 c -0.397606,0 -0.717761,-0.377674 -0.717761,-0.846365 v -2.281337 c 0,-0.468689 0.320155,-0.846364 0.717761,-0.846364 z m -20.378705,0.439668 h 3.014488 c 0.397606,0 0.717212,0.24402 0.717212,0.54684 v 1.473994 c 0,0.302819 -0.319606,0.546839 -0.717212,0.546839 h -3.014488 c -0.397606,0 -0.717761,-0.24402 -0.717761,-0.546839 v -1.473994 c 0,-0.30282 0.320155,-0.54684 0.717761,-0.54684 z" />
    <path
       id="path8"
       d="M 92.246098,55.817421 13.27422,56.131785 27.404115,72.302848 85.80933,72.145666 Z M 55.633678,58.7088 h 3.013937 c 0.397607,0 0.717761,0.636038 0.717761,1.425631 0,0.789592 -0.320154,1.42508 -0.717761,1.42508 h -3.013937 c -0.397606,0 -0.717761,-0.635488 -0.717761,-1.42508 0,-0.789593 0.320155,-1.425631 0.717761,-1.425631 z m -7.347985,0.04726 h 3.013937 c 0.397607,0 0.717761,0.636037 0.717761,1.425629 0,0.789594 -0.320154,1.425081 -0.717761,1.425081 h -3.013937 c -0.397607,0 -0.717761,-0.635487 -0.717761,-1.425081 0,-0.789592 0.320154,-1.425629 0.717761,-1.425629 z m 14.506912,0 h 3.014487 c 0.397606,0 0.717212,0.636037 0.717212,1.425629 0,0.789594 -0.319606,1.425081 -0.717212,1.425081 h -3.014487 c -0.397607,0 -0.717761,-0.635487 -0.717761,-1.425081 0,-0.789592 0.320154,-1.425629 0.717761,-1.425629 z m 7.473291,0 h 3.014487 c 0.397606,0 0.717762,0.636037 0.717762,1.425629 0,0.789594 -0.320156,1.425081 -0.717762,1.425081 h -3.014487 c -0.397607,0 -0.717762,-0.635487 -0.717762,-1.425081 0,-0.789592 0.320155,-1.425629 0.717762,-1.425629 z"
       style="stroke-width:1.06352" />
    <rect
       x="10.447396"
       y="54.992069"
       width="84.938545"
       height="1.4979587"
       ry="0.73232925"
       stroke="#ffffff"
       stroke-linecap="round"
       stroke-linejoin="round"
       stroke-width="0.202417"
       id="rect10"
       style="stroke:none" />
    <rect
       x="29.479053"
       y="44.234898"
       width="54.189175"
       height="1.4979587"
       ry="0.73232925"
       stroke="#ffffff"
       stroke-linecap="round"
       stroke-linejoin="round"
       stroke-width="0.161677"
       id="rect12"
       style="stroke:none" />
  </g>
</svg>
