<?xml version="1.0" encoding="UTF-8" standalone="no"?>
<svg
   width="400"
   height="400"
   viewBox="-0.304 -0.784 810.80012 699.65016"
   version="1.1"
   id="svg1900"
   sodipodi:docname="64.svg"
   inkscape:version="1.2.2 (b0a8486541, 2022-12-01)"
   xmlns:inkscape="http://www.inkscape.org/namespaces/inkscape"
   xmlns:sodipodi="http://sodipodi.sourceforge.net/DTD/sodipodi-0.dtd"
   xmlns="http://www.w3.org/2000/svg"
   xmlns:svg="http://www.w3.org/2000/svg">
  <defs
     id="defs1904" />
  <sodipodi:namedview
     id="namedview1902"
     pagecolor="#505050"
     bordercolor="#eeeeee"
     borderopacity="1"
     inkscape:showpageshadow="0"
     inkscape:pageopacity="0"
     inkscape:pagecheckerboard="0"
     inkscape:deskcolor="#505050"
     showgrid="false"
     inkscape:zoom="0.7765348"
     inkscape:cx="-191.23419"
     inkscape:cy="90.144061"
     inkscape:window-width="1920"
     inkscape:window-height="1011"
     inkscape:window-x="0"
     inkscape:window-y="0"
     inkscape:window-maximized="1"
     inkscape:current-layer="svg1900" />
  <path
     d="m 394.16961,13.475094 c -10.42106,-0.112494 -21.08209,1.742149 -31.44493,5.724548 -41.79635,18.94738 -63.8995,65.230063 -52.56888,109.813088 -20.80558,23.03416 -27.71963,55.71071 -18.06076,85.06151 -4.08679,-1.11459 -8.16837,-1.11459 -12.25516,0 -20.80558,3.71527 -39.19613,15.78778 -50.71448,33.6215 -24.52072,7.24473 -41.97139,29.19098 -43.45795,54.82663 -19.31902,8.91661 -34.31659,24.67801 -42.49017,44.18348 v 97.3168 H 111.97462 V 557.94789 H 89.076178 v -14.9164 h -5.724547 c -2.229215,0 -4.111902,1.88282 -4.111902,4.1119 v 39.3458 c 0,2.22922 1.882814,4.1119 4.111902,4.1119 h 5.724547 v -16.36744 h 22.898442 v 16.36744 l 101.75113,-0.16125 c -34.92416,18.76219 -33.76357,68.85768 1.53197,85.94812 H 79.247085 v 8.22393 H 730.9515 v -8.22393 H 591.63034 c 16.53234,-7.98788 27.09051,-24.82514 27.09051,-43.21569 0,-17.83372 -9.87387,-34.21131 -25.47837,-42.57134 h 104.81431 v -16.36745 h 22.81727 v 16.36745 h 5.80509 c 2.41491,0 4.27324,-1.88282 4.27324,-4.1119 v -39.3458 c 0,-2.22909 -1.85821,-4.1119 -4.27324,-4.1119 h -5.80509 v 14.91639 h -22.81727 v -97.55779 h 16.52854 v -16.36745 h -49.26216 v 16.36745 h 16.36744 v 82.64266 h -64.66308 v -90.06027 h 7.2564 v -8.94958 H 599.93444 V 363.07339 H 648.9556 V 338.4829 h -73.69283 v 105.53984 h -72.08069 v -28.78383 c 0,-33.62277 -50.71448,-33.62277 -50.71448,0 v 28.78383 h -80.22382 v -49.74669 h -15.48084 c -12.63187,-28.42233 -52.73123,-28.42233 -65.54969,0 h -15.39966 v 49.74669 H 192.20441 V 343.32058 c 12.44618,-7.24473 21.39158,-18.90679 25.47837,-32.65372 27.3074,8.3594 56.80914,-0.35736 75.38614,-22.09174 31.57938,10.40279 65.80084,-4.8737 79.17486,-35.15373 34.55251,12.81719 72.62864,-7.0655 81.91714,-42.73243 9.47394,-2.04339 18.15208,-6.66494 25.39719,-12.98081 3.52945,-3.34376 6.9204,-6.46821 10.07833,-9.99767 4.82982,-5.01563 8.88705,-10.4227 12.41651,-16.36744 5.75866,-9.10243 10.03318,-19.13129 12.81973,-29.34826 0.92882,-4.27261 1.4513,-8.3613 1.4513,-12.81973 0,-24.33554 -16.47907,-45.713173 -40.07132,-51.843355 C 465.94855,38.872509 431.39312,13.877393 394.17443,13.47531 Z M 259.27517,590.76243 h 65.71078 c -15.79033,8.3594 -25.39719,24.73763 -25.39719,42.57135 0,18.57573 10.37184,35.28437 27.0905,43.45795 h -69.09741 c 16.71879,-8.17358 27.33277,-25.06741 27.33277,-43.45795 3e-5,-17.83372 -10.03508,-34.21132 -25.63945,-42.57135 z m 111.02313,0 h 65.79069 c -15.79032,8.3594 -25.63945,24.73763 -25.63945,42.57135 2e-5,18.57573 10.6382,35.28437 27.17168,43.45795 h -68.77397 c 16.53234,-8.17358 26.92942,-25.06741 26.92942,-43.45795 0,-17.83372 -9.87386,-34.21132 -25.47837,-42.57135 z m 111.5064,0 h 65.71078 c -15.79032,8.3594 -25.55828,24.73763 -25.55828,42.57135 0,18.57573 10.55754,35.28437 27.09051,43.45795 h -68.77397 c 16.53234,-8.17358 27.00933,-25.06741 27.00933,-43.45795 3e-5,-17.83372 -9.87387,-34.21132 -25.47837,-42.57135 z"
     id="path1898"
     style="stroke-width:1.2684" />
</svg>
