<?xml version="1.0" encoding="UTF-8" standalone="no"?>
<!-- Uploaded to: SVG Repo, www.svgrepo.com, Generator: SVG Repo Mixer Tools -->

<svg
   width="400"
   height="400"
   viewBox="0 0 512 512"
   fill="#000000"
   class="icon"
   version="1.1"
   id="svg4008"
   sodipodi:docname="8.svg"
   inkscape:version="1.2.2 (b0a8486541, 2022-12-01)"
   xmlns:inkscape="http://www.inkscape.org/namespaces/inkscape"
   xmlns:sodipodi="http://sodipodi.sourceforge.net/DTD/sodipodi-0.dtd"
   xmlns="http://www.w3.org/2000/svg"
   xmlns:svg="http://www.w3.org/2000/svg">
  <defs
     id="defs4012" />
  <sodipodi:namedview
     id="namedview4010"
     pagecolor="#505050"
     bordercolor="#eeeeee"
     borderopacity="1"
     inkscape:showpageshadow="0"
     inkscape:pageopacity="0"
     inkscape:pagecheckerboard="0"
     inkscape:deskcolor="#505050"
     showgrid="false"
     inkscape:zoom="0.505"
     inkscape:cx="414.85148"
     inkscape:cy="390.09901"
     inkscape:window-width="1920"
     inkscape:window-height="1011"
     inkscape:window-x="0"
     inkscape:window-y="0"
     inkscape:window-maximized="1"
     inkscape:current-layer="svg4008" />
  <path
     d="m 133.72183,247.74352 h 2.30628 c 3.67112,19.0519 11.86532,36.94309 23.8929,52.16772 l -27.16781,27.21392 c 14.64062,14.62138 38.35736,14.62138 52.99797,0 l 1.61438,-1.61439 c 3.85663,2.61193 7.86081,4.99902 11.99259,7.14943 15.83284,-3.78194 32.52741,-0.29754 45.52567,9.5018 l 13.14571,9.96307 13.1457,-9.96307 c 11.94176,-9.02663 27.0697,-12.74605 41.83564,-10.28593 6.26359,-3.36351 12.22108,-7.26827 17.80437,-11.66971 l 26.47592,26.47593 3.87453,-2.95203 c 11.49589,-14.91253 10.13336,-36.04154 -3.18264,-49.35406 l -1.6144,-1.61439 c 10.88256,-16.04899 17.74817,-34.4786 20.01839,-53.73596 h 38.42237 c 0,-20.71061 -16.78927,-37.49988 -37.49987,-37.49988 h -2.30626 c -3.68475,-19.05607 -11.89494,-36.94762 -23.93904,-52.1677 l 27.16781,-27.16781 c -14.64061,-14.62139 -38.35735,-14.62139 -52.99797,0 l -1.61439,1.61439 c -16.08031,-10.88 -34.54287,-17.73028 -53.82822,-19.97226 V 65.410235 c -20.71059,0 -37.49986,16.789255 -37.49986,37.499865 v 2.35238 c -19.02261,3.63893 -36.89582,11.78468 -52.12158,23.75452 l -27.16781,-27.16779 c -14.62139,14.64061 -14.62139,38.35736 0,52.99797 l 1.61439,1.61438 c -10.87311,16.06681 -17.72309,34.51274 -19.97226,53.78209 H 96.221969 c 0,20.71061 16.789271,37.49987 37.499861,37.49987 z m 28.45932,-34.2711 c 1.75301,-14.86773 7.03511,-29.10092 15.40585,-41.51276 l 8.16417,-12.08483 11.62357,-9.22505 c 11.76128,-9.26963 25.56696,-15.59525 40.26739,-18.45013 l 14.34497,-2.76751 14.66785,1.70664 c 14.86774,1.75302 29.10093,7.03511 41.51277,15.40584 l 12.08483,8.16418 9.22504,11.62357 c 9.26963,11.76128 15.59525,25.56694 18.45013,40.26739 l 2.76751,14.34497 -1.70664,14.66784 c -1.75302,14.86774 -7.0351,29.10094 -15.40584,41.51277 l -8.16417,12.08482 -11.62359,9.22506 c -11.76126,9.26963 -25.56692,15.59525 -40.26737,18.45013 l -14.34497,2.76751 -14.66784,-1.70664 c -14.86775,-1.75302 -29.10094,-7.03511 -41.51278,-15.40584 l -12.17707,-8.16418 -9.22507,-11.62358 c -9.26962,-11.76127 -15.59524,-25.56693 -18.45011,-40.26737 l -2.76752,-14.34498 z m 95.89449,233.11728 c -8.85676,0.0168 -17.47541,-2.86682 -24.53865,-8.21033 L 219.6994,428.00118 c -4.61593,-3.47481 -10.97443,-3.47481 -15.59036,0 l -13.83759,10.37819 c -14.51314,10.93958 -34.51804,10.93958 -49.03119,0 l -13.83759,-10.37819 c -4.61593,-3.47481 -10.97442,-3.47481 -15.59034,0 l -17.896623,13.56085 c -6.088365,4.6236 -14.772097,3.43614 -19.395672,-2.65221 -4.623592,-6.08836 -3.436169,-14.77211 2.652196,-19.3957 l 17.896607,-13.56083 c 14.513142,-10.93959 34.518052,-10.93959 49.031192,0 l 13.83759,10.3782 c 4.61593,3.4748 10.97442,3.4748 15.59034,0 l 13.83759,-10.3782 c 14.51316,-10.93959 34.51806,-10.93959 49.03121,0 l 13.83758,10.3782 c 4.61594,3.4748 10.97442,3.4748 15.59035,0 l 13.83759,-10.3782 c 14.51314,-10.93959 34.51804,-10.93959 49.03119,0 l 13.83758,10.3782 c 4.61594,3.4748 10.97443,3.4748 15.59035,0 l 13.8376,-10.3782 c 14.51313,-10.93959 34.51803,-10.93959 49.03119,0 l 13.83758,10.3782 c 6.08838,4.62359 7.27578,13.30732 2.65221,19.39567 -4.62359,6.08835 -13.30732,7.2758 -19.39569,2.65221 L 404.2467,428.00118 c -4.61593,-3.47481 -10.97441,-3.47481 -15.59034,0 l -13.83759,10.37819 c -14.51314,10.93958 -34.51805,10.93958 -49.03119,0 l -13.83759,-10.37819 c -4.61593,-3.47481 -10.97443,-3.47481 -15.59036,0 l -13.83759,10.37819 c -7.03646,5.32746 -15.62065,8.21047 -24.4464,8.21033 z m 0,-52.81348 c -8.85676,0.017 -17.47541,-2.86681 -24.53865,-8.21032 L 219.6994,375.18771 c -4.61593,-3.4748 -10.97443,-3.4748 -15.59036,0 l -13.83759,10.37819 c -14.51314,10.93958 -34.51804,10.93958 -49.03119,0 l -13.83759,-10.37819 c -4.61593,-3.4748 -10.97442,-3.4748 -15.59034,0 l -17.896623,13.56084 c -6.088365,4.62359 -14.772097,3.43616 -19.395672,-2.65221 -4.623592,-6.08835 -3.436169,-14.7721 2.652196,-19.39567 l 17.896607,-13.56084 c 14.513142,-10.93958 34.518052,-10.93958 49.031192,0 l 13.83759,10.37819 c 4.61593,3.4748 10.97442,3.4748 15.59034,0 l 13.83759,-10.37819 c 14.51316,-10.93958 34.51806,-10.93958 49.03121,0 l 13.83758,10.37819 c 4.61594,3.4748 10.97442,3.4748 15.59035,0 l 13.83759,-10.37819 c 14.51314,-10.93958 34.51804,-10.93958 49.03119,0 l 13.83758,10.37819 c 4.61594,3.4748 10.97443,3.4748 15.59035,0 l 13.8376,-10.37819 c 14.51313,-10.93958 34.51803,-10.93958 49.03119,0 l 13.83758,10.37819 c 6.08838,4.62359 7.27578,13.30732 2.65221,19.39567 -4.62359,6.08837 -13.30732,7.27581 -19.39569,2.65221 L 404.2467,375.18771 c -4.61593,-3.4748 -10.97441,-3.4748 -15.59034,0 l -13.83759,10.37819 c -14.51314,10.93958 -34.51805,10.93958 -49.03119,0 l -13.83759,-10.37819 c -4.61593,-3.4748 -10.97443,-3.4748 -15.59036,0 l -13.83759,10.37819 c -7.03806,5.32445 -15.62121,8.2071 -24.4464,8.21032 z"
     id="path4006"
     sodipodi:nodetypes="scccccccccccccccccscccccccscccccccsccccccccccccccccccccccccccccccccccsccccccccccccccccsccccccccccccccccccsccccccccccccccccsccccccccc"
     style="stroke-width:0.372381" />
</svg>
